<mxfile host="app.diagrams.net" modified="2023-04-04T06:22:17.011Z" agent="Mozilla/5.0 (Windows NT 10.0; Win64; x64) AppleWebKit/537.36 (KHTML, like Gecko) Chrome/111.0.0.0 Safari/537.36" etag="8OZAxpFyyZ91iQ56_jKf" version="21.1.4" type="device">
  <diagram id="R2lEEEUBdFMjLlhIrx00" name="Page-1">
    <mxGraphModel dx="1894" dy="1558" grid="1" gridSize="10" guides="1" tooltips="1" connect="1" arrows="1" fold="1" page="1" pageScale="1" pageWidth="1100" pageHeight="850" math="0" shadow="0" extFonts="Permanent Marker^https://fonts.googleapis.com/css?family=Permanent+Marker">
      <root>
        <mxCell id="0" />
        <mxCell id="1" parent="0" />
        <mxCell id="oIED3Yfyv7fZwEA4ajrS-15" value="&lt;font style=&quot;font-size: 18px;&quot;&gt;member&lt;/font&gt;" style="swimlane;childLayout=stackLayout;horizontal=1;startSize=50;horizontalStack=0;rounded=1;fontSize=14;fontStyle=0;strokeWidth=2;resizeParent=0;resizeLast=1;shadow=0;dashed=0;align=center;arcSize=4;whiteSpace=wrap;html=1;" parent="1" vertex="1">
          <mxGeometry x="72.5" y="105" width="235" height="415" as="geometry" />
        </mxCell>
        <mxCell id="oIED3Yfyv7fZwEA4ajrS-16" value="&lt;font style=&quot;font-size: 18px;&quot;&gt;&lt;u&gt;&lt;b&gt;m_id&lt;/b&gt;&lt;/u&gt;&lt;br&gt;m_name&lt;br&gt;m_pass&lt;br&gt;m_gender&lt;br&gt;m_age&lt;br&gt;m_nickname&lt;br&gt;m_point&lt;br&gt;m_email&lt;br&gt;m_phone&lt;br&gt;m_car_license&lt;br&gt;m_addr&lt;br&gt;m_near_addr&lt;br&gt;m_account&lt;br&gt;m_bank&lt;br&gt;m_w_no&lt;br&gt;m_g_no&lt;br&gt;&lt;/font&gt;" style="align=left;strokeColor=none;fillColor=none;spacingLeft=4;fontSize=12;verticalAlign=top;resizable=0;rotatable=0;part=1;html=1;" parent="oIED3Yfyv7fZwEA4ajrS-15" vertex="1">
          <mxGeometry y="50" width="235" height="365" as="geometry" />
        </mxCell>
        <mxCell id="oIED3Yfyv7fZwEA4ajrS-19" value="&lt;font style=&quot;font-size: 18px;&quot;&gt;car&lt;/font&gt;" style="swimlane;childLayout=stackLayout;horizontal=1;startSize=50;horizontalStack=0;rounded=1;fontSize=14;fontStyle=0;strokeWidth=2;resizeParent=0;resizeLast=1;shadow=0;dashed=0;align=center;arcSize=4;whiteSpace=wrap;html=1;" parent="1" vertex="1">
          <mxGeometry x="630" y="110" width="220" height="330" as="geometry" />
        </mxCell>
        <mxCell id="oIED3Yfyv7fZwEA4ajrS-20" value="&lt;span style=&quot;font-size: 18px;&quot;&gt;&lt;u&gt;&lt;b&gt;c_no&lt;br&gt;&lt;/b&gt;&lt;/u&gt;c_m_id&lt;br&gt;c_num&lt;br&gt;c_years&lt;br&gt;c_kind&lt;br&gt;c_value&lt;br&gt;c_date&lt;br&gt;c_term&lt;br&gt;&lt;/span&gt;" style="align=left;strokeColor=none;fillColor=none;spacingLeft=4;fontSize=12;verticalAlign=top;resizable=0;rotatable=0;part=1;html=1;" parent="oIED3Yfyv7fZwEA4ajrS-19" vertex="1">
          <mxGeometry y="50" width="220" height="280" as="geometry" />
        </mxCell>
        <mxCell id="oIED3Yfyv7fZwEA4ajrS-21" value="&lt;font style=&quot;font-size: 18px;&quot;&gt;warning&lt;/font&gt;" style="swimlane;childLayout=stackLayout;horizontal=1;startSize=50;horizontalStack=0;rounded=1;fontSize=14;fontStyle=0;strokeWidth=2;resizeParent=0;resizeLast=1;shadow=0;dashed=0;align=center;arcSize=4;whiteSpace=wrap;html=1;" parent="1" vertex="1">
          <mxGeometry x="-440" y="70" width="240" height="180" as="geometry" />
        </mxCell>
        <mxCell id="oIED3Yfyv7fZwEA4ajrS-22" value="&lt;span style=&quot;font-size: 18px;&quot;&gt;&lt;u style=&quot;font-weight: bold;&quot;&gt;w_no&lt;/u&gt;&lt;br&gt;w_detail&lt;br&gt;&lt;/span&gt;" style="align=left;strokeColor=none;fillColor=none;spacingLeft=4;fontSize=12;verticalAlign=top;resizable=0;rotatable=0;part=1;html=1;" parent="oIED3Yfyv7fZwEA4ajrS-21" vertex="1">
          <mxGeometry y="50" width="240" height="130" as="geometry" />
        </mxCell>
        <mxCell id="oIED3Yfyv7fZwEA4ajrS-26" value="&lt;span style=&quot;font-size: 18px;&quot;&gt;경고부여&lt;/span&gt;" style="shape=rhombus;perimeter=rhombusPerimeter;whiteSpace=wrap;html=1;align=center;" parent="1" vertex="1">
          <mxGeometry x="-165" y="160" width="190" height="100" as="geometry" />
        </mxCell>
        <mxCell id="oIED3Yfyv7fZwEA4ajrS-33" value="" style="endArrow=none;html=1;rounded=0;entryX=1.005;entryY=0.692;entryDx=0;entryDy=0;exitX=0;exitY=0.5;exitDx=0;exitDy=0;entryPerimeter=0;" parent="1" source="oIED3Yfyv7fZwEA4ajrS-26" target="oIED3Yfyv7fZwEA4ajrS-22" edge="1">
          <mxGeometry relative="1" as="geometry">
            <mxPoint y="410" as="sourcePoint" />
            <mxPoint x="160" y="410" as="targetPoint" />
          </mxGeometry>
        </mxCell>
        <mxCell id="oIED3Yfyv7fZwEA4ajrS-34" value="1" style="resizable=0;html=1;whiteSpace=wrap;align=right;verticalAlign=bottom;fontSize=25;" parent="oIED3Yfyv7fZwEA4ajrS-33" connectable="0" vertex="1">
          <mxGeometry x="1" relative="1" as="geometry" />
        </mxCell>
        <mxCell id="oIED3Yfyv7fZwEA4ajrS-35" value="" style="endArrow=none;html=1;rounded=0;exitX=1;exitY=0.5;exitDx=0;exitDy=0;entryX=-0.014;entryY=0.189;entryDx=0;entryDy=0;entryPerimeter=0;" parent="1" source="oIED3Yfyv7fZwEA4ajrS-26" target="oIED3Yfyv7fZwEA4ajrS-16" edge="1">
          <mxGeometry relative="1" as="geometry">
            <mxPoint y="410" as="sourcePoint" />
            <mxPoint x="160" y="410" as="targetPoint" />
          </mxGeometry>
        </mxCell>
        <mxCell id="oIED3Yfyv7fZwEA4ajrS-36" value="1" style="resizable=0;html=1;whiteSpace=wrap;align=right;verticalAlign=bottom;fontSize=25;" parent="oIED3Yfyv7fZwEA4ajrS-35" connectable="0" vertex="1">
          <mxGeometry x="1" relative="1" as="geometry" />
        </mxCell>
        <mxCell id="oIED3Yfyv7fZwEA4ajrS-37" value="&lt;font style=&quot;font-size: 18px;&quot;&gt;등록&lt;/font&gt;" style="shape=rhombus;perimeter=rhombusPerimeter;whiteSpace=wrap;html=1;align=center;" parent="1" vertex="1">
          <mxGeometry x="360" y="250" width="190" height="100" as="geometry" />
        </mxCell>
        <mxCell id="oIED3Yfyv7fZwEA4ajrS-38" value="" style="edgeStyle=entityRelationEdgeStyle;fontSize=12;html=1;endArrow=ERzeroToMany;endFill=1;rounded=0;exitX=1;exitY=0.5;exitDx=0;exitDy=0;" parent="1" source="oIED3Yfyv7fZwEA4ajrS-37" target="oIED3Yfyv7fZwEA4ajrS-20" edge="1">
          <mxGeometry width="100" height="100" relative="1" as="geometry">
            <mxPoint x="360" y="510" as="sourcePoint" />
            <mxPoint x="460" y="410" as="targetPoint" />
          </mxGeometry>
        </mxCell>
        <mxCell id="oIED3Yfyv7fZwEA4ajrS-39" value="" style="endArrow=none;html=1;rounded=0;entryX=1;entryY=0.5;entryDx=0;entryDy=0;exitX=0;exitY=0.5;exitDx=0;exitDy=0;" parent="1" source="oIED3Yfyv7fZwEA4ajrS-37" target="oIED3Yfyv7fZwEA4ajrS-16" edge="1">
          <mxGeometry relative="1" as="geometry">
            <mxPoint x="330" y="460" as="sourcePoint" />
            <mxPoint x="490" y="460" as="targetPoint" />
          </mxGeometry>
        </mxCell>
        <mxCell id="oIED3Yfyv7fZwEA4ajrS-40" value="1" style="resizable=0;html=1;whiteSpace=wrap;align=right;verticalAlign=bottom;fontSize=25;" parent="oIED3Yfyv7fZwEA4ajrS-39" connectable="0" vertex="1">
          <mxGeometry x="1" relative="1" as="geometry" />
        </mxCell>
        <mxCell id="oIED3Yfyv7fZwEA4ajrS-41" value="N" style="resizable=0;html=1;whiteSpace=wrap;align=right;verticalAlign=bottom;fontSize=25;" parent="1" connectable="0" vertex="1">
          <mxGeometry x="630" y="300" as="geometry" />
        </mxCell>
        <mxCell id="oIED3Yfyv7fZwEA4ajrS-42" value="&lt;span style=&quot;font-size: 18px;&quot;&gt;rental&lt;/span&gt;" style="swimlane;childLayout=stackLayout;horizontal=1;startSize=50;horizontalStack=0;rounded=1;fontSize=14;fontStyle=0;strokeWidth=2;resizeParent=0;resizeLast=1;shadow=0;dashed=0;align=center;arcSize=4;whiteSpace=wrap;html=1;" parent="1" vertex="1">
          <mxGeometry x="337.5" y="520" width="235" height="200" as="geometry" />
        </mxCell>
        <mxCell id="oIED3Yfyv7fZwEA4ajrS-43" value="&lt;span style=&quot;font-size: 18px;&quot;&gt;&lt;u style=&quot;font-weight: bold;&quot;&gt;r_no&lt;/u&gt;&lt;br&gt;r_c_no&lt;br&gt;r_owner_id&lt;br&gt;r_user_id&lt;br&gt;r_date&lt;br&gt;r_addr&lt;br&gt;&lt;br&gt;&lt;/span&gt;" style="align=left;strokeColor=none;fillColor=none;spacingLeft=4;fontSize=12;verticalAlign=top;resizable=0;rotatable=0;part=1;html=1;" parent="oIED3Yfyv7fZwEA4ajrS-42" vertex="1">
          <mxGeometry y="50" width="235" height="150" as="geometry" />
        </mxCell>
        <mxCell id="oIED3Yfyv7fZwEA4ajrS-44" value="&lt;span style=&quot;font-size: 18px;&quot;&gt;comment&lt;/span&gt;" style="swimlane;childLayout=stackLayout;horizontal=1;startSize=50;horizontalStack=0;rounded=1;fontSize=14;fontStyle=0;strokeWidth=2;resizeParent=0;resizeLast=1;shadow=0;dashed=0;align=center;arcSize=4;whiteSpace=wrap;html=1;" parent="1" vertex="1">
          <mxGeometry x="-235" y="-240" width="235" height="200" as="geometry" />
        </mxCell>
        <mxCell id="oIED3Yfyv7fZwEA4ajrS-45" value="&lt;span style=&quot;font-size: 18px;&quot;&gt;&lt;b&gt;&lt;u&gt;cm_no&lt;br&gt;&lt;/u&gt;&lt;/b&gt;cm_rv_no&lt;br&gt;cm_id&lt;br&gt;cm_memo&lt;br&gt;cm_date&lt;br&gt;cm_likes&lt;br&gt;&lt;/span&gt;" style="align=left;strokeColor=none;fillColor=none;spacingLeft=4;fontSize=12;verticalAlign=top;resizable=0;rotatable=0;part=1;html=1;" parent="oIED3Yfyv7fZwEA4ajrS-44" vertex="1">
          <mxGeometry y="50" width="235" height="150" as="geometry" />
        </mxCell>
        <mxCell id="oIED3Yfyv7fZwEA4ajrS-59" style="edgeStyle=orthogonalEdgeStyle;rounded=0;orthogonalLoop=1;jettySize=auto;html=1;exitX=0.5;exitY=1;exitDx=0;exitDy=0;entryX=0.5;entryY=0;entryDx=0;entryDy=0;" parent="1" source="oIED3Yfyv7fZwEA4ajrS-54" target="oIED3Yfyv7fZwEA4ajrS-42" edge="1">
          <mxGeometry relative="1" as="geometry" />
        </mxCell>
        <mxCell id="oIED3Yfyv7fZwEA4ajrS-54" value="&lt;font style=&quot;font-size: 18px;&quot;&gt;렌탈&lt;/font&gt;" style="shape=rhombus;perimeter=rhombusPerimeter;whiteSpace=wrap;html=1;align=center;" parent="1" vertex="1">
          <mxGeometry x="360" y="360" width="190" height="100" as="geometry" />
        </mxCell>
        <mxCell id="oIED3Yfyv7fZwEA4ajrS-55" value="" style="edgeStyle=entityRelationEdgeStyle;fontSize=12;html=1;endArrow=ERzeroToMany;endFill=1;rounded=0;exitX=1;exitY=0.5;exitDx=0;exitDy=0;" parent="1" source="oIED3Yfyv7fZwEA4ajrS-54" edge="1">
          <mxGeometry width="100" height="100" relative="1" as="geometry">
            <mxPoint x="360" y="620" as="sourcePoint" />
            <mxPoint x="630" y="410" as="targetPoint" />
          </mxGeometry>
        </mxCell>
        <mxCell id="oIED3Yfyv7fZwEA4ajrS-58" value="N" style="resizable=0;html=1;whiteSpace=wrap;align=right;verticalAlign=bottom;fontSize=25;" parent="1" connectable="0" vertex="1">
          <mxGeometry x="630" y="410" as="geometry" />
        </mxCell>
        <mxCell id="oIED3Yfyv7fZwEA4ajrS-60" value="&lt;span style=&quot;font-size: 18px;&quot;&gt;event&lt;/span&gt;" style="swimlane;childLayout=stackLayout;horizontal=1;startSize=50;horizontalStack=0;rounded=1;fontSize=14;fontStyle=0;strokeWidth=2;resizeParent=0;resizeLast=1;shadow=0;dashed=0;align=center;arcSize=4;whiteSpace=wrap;html=1;" parent="1" vertex="1">
          <mxGeometry x="-210" y="510" width="235" height="200" as="geometry" />
        </mxCell>
        <mxCell id="oIED3Yfyv7fZwEA4ajrS-61" value="&lt;span style=&quot;font-size: 18px;&quot;&gt;&lt;b&gt;&lt;u&gt;e_no&lt;br&gt;&lt;/u&gt;&lt;/b&gt;e_name&lt;br&gt;e_coupon&lt;br&gt;e_id&lt;br&gt;&lt;/span&gt;" style="align=left;strokeColor=none;fillColor=none;spacingLeft=4;fontSize=12;verticalAlign=top;resizable=0;rotatable=0;part=1;html=1;" parent="oIED3Yfyv7fZwEA4ajrS-60" vertex="1">
          <mxGeometry y="50" width="235" height="150" as="geometry" />
        </mxCell>
        <mxCell id="oIED3Yfyv7fZwEA4ajrS-62" value="&lt;span style=&quot;font-size: 18px;&quot;&gt;당첨&lt;/span&gt;" style="shape=rhombus;perimeter=rhombusPerimeter;whiteSpace=wrap;html=1;align=center;" parent="1" vertex="1">
          <mxGeometry x="95" y="580" width="190" height="100" as="geometry" />
        </mxCell>
        <mxCell id="oIED3Yfyv7fZwEA4ajrS-63" value="" style="endArrow=none;html=1;rounded=0;entryX=0.5;entryY=1;entryDx=0;entryDy=0;exitX=0.5;exitY=0;exitDx=0;exitDy=0;" parent="1" source="oIED3Yfyv7fZwEA4ajrS-62" target="oIED3Yfyv7fZwEA4ajrS-16" edge="1">
          <mxGeometry relative="1" as="geometry">
            <mxPoint x="10" y="520" as="sourcePoint" />
            <mxPoint x="170" y="520" as="targetPoint" />
          </mxGeometry>
        </mxCell>
        <mxCell id="oIED3Yfyv7fZwEA4ajrS-64" value="1" style="resizable=0;html=1;whiteSpace=wrap;align=right;verticalAlign=bottom;fontSize=25;" parent="oIED3Yfyv7fZwEA4ajrS-63" connectable="0" vertex="1">
          <mxGeometry x="1" relative="1" as="geometry" />
        </mxCell>
        <mxCell id="oIED3Yfyv7fZwEA4ajrS-65" value="" style="edgeStyle=entityRelationEdgeStyle;fontSize=12;html=1;endArrow=ERzeroToMany;endFill=1;rounded=0;exitX=0;exitY=0.5;exitDx=0;exitDy=0;entryX=1.004;entryY=0.47;entryDx=0;entryDy=0;entryPerimeter=0;" parent="1" source="oIED3Yfyv7fZwEA4ajrS-62" target="oIED3Yfyv7fZwEA4ajrS-61" edge="1">
          <mxGeometry width="100" height="100" relative="1" as="geometry">
            <mxPoint x="40" y="570" as="sourcePoint" />
            <mxPoint x="140" y="470" as="targetPoint" />
          </mxGeometry>
        </mxCell>
        <mxCell id="oIED3Yfyv7fZwEA4ajrS-66" value="N" style="resizable=0;html=1;whiteSpace=wrap;align=right;verticalAlign=bottom;fontSize=25;" parent="1" connectable="0" vertex="1">
          <mxGeometry x="50" y="630" as="geometry" />
        </mxCell>
        <mxCell id="oIED3Yfyv7fZwEA4ajrS-67" value="&lt;span style=&quot;font-size: 18px;&quot;&gt;review&lt;/span&gt;" style="swimlane;childLayout=stackLayout;horizontal=1;startSize=50;horizontalStack=0;rounded=1;fontSize=14;fontStyle=0;strokeWidth=2;resizeParent=0;resizeLast=1;shadow=0;dashed=0;align=center;arcSize=4;whiteSpace=wrap;html=1;" parent="1" vertex="1">
          <mxGeometry x="335" y="-230" width="240" height="220" as="geometry" />
        </mxCell>
        <mxCell id="oIED3Yfyv7fZwEA4ajrS-68" value="&lt;span style=&quot;font-size: 18px;&quot;&gt;&lt;b&gt;&lt;u&gt;rv_no&lt;br&gt;&lt;/u&gt;&lt;/b&gt;rv_id&lt;br&gt;rv_car&lt;br&gt;rv_title&lt;br&gt;rv_memo&lt;br&gt;rv_date&lt;br&gt;rv_views&lt;br&gt;&lt;/span&gt;" style="align=left;strokeColor=none;fillColor=none;spacingLeft=4;fontSize=12;verticalAlign=top;resizable=0;rotatable=0;part=1;html=1;" parent="oIED3Yfyv7fZwEA4ajrS-67" vertex="1">
          <mxGeometry y="50" width="240" height="170" as="geometry" />
        </mxCell>
        <mxCell id="oIED3Yfyv7fZwEA4ajrS-71" value="&lt;span style=&quot;font-size: 18px;&quot;&gt;글 작성&lt;/span&gt;" style="shape=rhombus;perimeter=rhombusPerimeter;whiteSpace=wrap;html=1;align=center;" parent="1" vertex="1">
          <mxGeometry x="360" y="105" width="190" height="100" as="geometry" />
        </mxCell>
        <mxCell id="oIED3Yfyv7fZwEA4ajrS-100" style="edgeStyle=orthogonalEdgeStyle;rounded=0;orthogonalLoop=1;jettySize=auto;html=1;exitX=0;exitY=0.5;exitDx=0;exitDy=0;entryX=1;entryY=0.467;entryDx=0;entryDy=0;entryPerimeter=0;" parent="1" source="oIED3Yfyv7fZwEA4ajrS-72" target="oIED3Yfyv7fZwEA4ajrS-45" edge="1">
          <mxGeometry relative="1" as="geometry" />
        </mxCell>
        <mxCell id="oIED3Yfyv7fZwEA4ajrS-72" value="&lt;span style=&quot;font-size: 18px;&quot;&gt;댓글 작성&lt;/span&gt;" style="shape=rhombus;perimeter=rhombusPerimeter;whiteSpace=wrap;html=1;align=center;" parent="1" vertex="1">
          <mxGeometry x="95" y="-170" width="190" height="100" as="geometry" />
        </mxCell>
        <mxCell id="oIED3Yfyv7fZwEA4ajrS-73" value="&lt;span style=&quot;font-size: 18px;&quot;&gt;grade&lt;/span&gt;" style="swimlane;childLayout=stackLayout;horizontal=1;startSize=50;horizontalStack=0;rounded=1;fontSize=14;fontStyle=0;strokeWidth=2;resizeParent=0;resizeLast=1;shadow=0;dashed=0;align=center;arcSize=4;whiteSpace=wrap;html=1;" parent="1" vertex="1">
          <mxGeometry x="-440" y="270" width="240" height="180" as="geometry" />
        </mxCell>
        <mxCell id="oIED3Yfyv7fZwEA4ajrS-74" value="&lt;span style=&quot;font-size: 18px;&quot;&gt;&lt;b&gt;&lt;u&gt;g_no&lt;br&gt;&lt;/u&gt;&lt;/b&gt;g_detail&lt;br&gt;&lt;/span&gt;" style="align=left;strokeColor=none;fillColor=none;spacingLeft=4;fontSize=12;verticalAlign=top;resizable=0;rotatable=0;part=1;html=1;" parent="oIED3Yfyv7fZwEA4ajrS-73" vertex="1">
          <mxGeometry y="50" width="240" height="130" as="geometry" />
        </mxCell>
        <mxCell id="oIED3Yfyv7fZwEA4ajrS-76" value="&lt;span style=&quot;font-size: 18px;&quot;&gt;등급부여&lt;/span&gt;" style="shape=rhombus;perimeter=rhombusPerimeter;whiteSpace=wrap;html=1;align=center;" parent="1" vertex="1">
          <mxGeometry x="-166" y="325" width="190" height="100" as="geometry" />
        </mxCell>
        <mxCell id="oIED3Yfyv7fZwEA4ajrS-77" value="" style="endArrow=none;html=1;rounded=0;entryX=1.005;entryY=0.692;entryDx=0;entryDy=0;exitX=0;exitY=0.5;exitDx=0;exitDy=0;entryPerimeter=0;" parent="1" source="oIED3Yfyv7fZwEA4ajrS-76" edge="1">
          <mxGeometry relative="1" as="geometry">
            <mxPoint x="-1" y="575" as="sourcePoint" />
            <mxPoint x="-200" y="375" as="targetPoint" />
          </mxGeometry>
        </mxCell>
        <mxCell id="oIED3Yfyv7fZwEA4ajrS-78" value="1" style="resizable=0;html=1;whiteSpace=wrap;align=right;verticalAlign=bottom;fontSize=25;" parent="oIED3Yfyv7fZwEA4ajrS-77" connectable="0" vertex="1">
          <mxGeometry x="1" relative="1" as="geometry" />
        </mxCell>
        <mxCell id="oIED3Yfyv7fZwEA4ajrS-79" value="" style="endArrow=none;html=1;rounded=0;exitX=1;exitY=0.5;exitDx=0;exitDy=0;entryX=0;entryY=0.75;entryDx=0;entryDy=0;" parent="1" source="oIED3Yfyv7fZwEA4ajrS-76" target="oIED3Yfyv7fZwEA4ajrS-16" edge="1">
          <mxGeometry relative="1" as="geometry">
            <mxPoint x="-1" y="575" as="sourcePoint" />
            <mxPoint x="71" y="375" as="targetPoint" />
          </mxGeometry>
        </mxCell>
        <mxCell id="oIED3Yfyv7fZwEA4ajrS-80" value="1" style="resizable=0;html=1;whiteSpace=wrap;align=right;verticalAlign=bottom;fontSize=25;" parent="oIED3Yfyv7fZwEA4ajrS-79" connectable="0" vertex="1">
          <mxGeometry x="1" relative="1" as="geometry" />
        </mxCell>
        <mxCell id="oIED3Yfyv7fZwEA4ajrS-82" value="" style="endArrow=none;html=1;rounded=0;entryX=1;entryY=0;entryDx=0;entryDy=0;exitX=0;exitY=0.5;exitDx=0;exitDy=0;" parent="1" source="oIED3Yfyv7fZwEA4ajrS-71" target="oIED3Yfyv7fZwEA4ajrS-16" edge="1">
          <mxGeometry relative="1" as="geometry">
            <mxPoint x="370" y="310" as="sourcePoint" />
            <mxPoint x="315" y="310" as="targetPoint" />
          </mxGeometry>
        </mxCell>
        <mxCell id="oIED3Yfyv7fZwEA4ajrS-83" value="1" style="resizable=0;html=1;whiteSpace=wrap;align=right;verticalAlign=bottom;fontSize=25;" parent="oIED3Yfyv7fZwEA4ajrS-82" connectable="0" vertex="1">
          <mxGeometry x="1" relative="1" as="geometry" />
        </mxCell>
        <mxCell id="oIED3Yfyv7fZwEA4ajrS-84" value="" style="edgeStyle=entityRelationEdgeStyle;fontSize=12;html=1;endArrow=ERzeroToMany;endFill=1;rounded=0;exitX=1;exitY=0.5;exitDx=0;exitDy=0;" parent="1" source="oIED3Yfyv7fZwEA4ajrS-71" target="oIED3Yfyv7fZwEA4ajrS-68" edge="1">
          <mxGeometry width="100" height="100" relative="1" as="geometry">
            <mxPoint x="560" y="310" as="sourcePoint" />
            <mxPoint x="640" y="310" as="targetPoint" />
          </mxGeometry>
        </mxCell>
        <mxCell id="oIED3Yfyv7fZwEA4ajrS-85" value="N" style="resizable=0;html=1;whiteSpace=wrap;align=right;verticalAlign=bottom;fontSize=25;" parent="1" connectable="0" vertex="1">
          <mxGeometry x="600" y="-100" as="geometry" />
        </mxCell>
        <mxCell id="oIED3Yfyv7fZwEA4ajrS-88" value="" style="edgeStyle=entityRelationEdgeStyle;fontSize=12;html=1;endArrow=ERzeroToMany;endFill=1;rounded=0;entryX=0;entryY=0.5;entryDx=0;entryDy=0;exitX=1;exitY=0.5;exitDx=0;exitDy=0;" parent="1" source="oIED3Yfyv7fZwEA4ajrS-72" target="oIED3Yfyv7fZwEA4ajrS-67" edge="1">
          <mxGeometry width="100" height="100" relative="1" as="geometry">
            <mxPoint x="190" y="150" as="sourcePoint" />
            <mxPoint x="290" y="50" as="targetPoint" />
          </mxGeometry>
        </mxCell>
        <mxCell id="oIED3Yfyv7fZwEA4ajrS-91" value="N" style="resizable=0;html=1;whiteSpace=wrap;align=right;verticalAlign=bottom;fontSize=25;" parent="1" connectable="0" vertex="1">
          <mxGeometry x="330" y="-120" as="geometry" />
        </mxCell>
        <mxCell id="oIED3Yfyv7fZwEA4ajrS-95" value="" style="edgeStyle=entityRelationEdgeStyle;fontSize=12;html=1;endArrow=ERzeroToMany;endFill=1;rounded=0;exitX=0.019;exitY=0.535;exitDx=0;exitDy=0;exitPerimeter=0;entryX=1;entryY=0.75;entryDx=0;entryDy=0;" parent="1" source="oIED3Yfyv7fZwEA4ajrS-54" target="oIED3Yfyv7fZwEA4ajrS-16" edge="1">
          <mxGeometry width="100" height="100" relative="1" as="geometry">
            <mxPoint x="310" y="460" as="sourcePoint" />
            <mxPoint x="410" y="360" as="targetPoint" />
          </mxGeometry>
        </mxCell>
        <mxCell id="oIED3Yfyv7fZwEA4ajrS-96" value="M" style="resizable=0;html=1;whiteSpace=wrap;align=right;verticalAlign=bottom;fontSize=25;" parent="1" connectable="0" vertex="1">
          <mxGeometry x="360" y="400" as="geometry" />
        </mxCell>
        <mxCell id="oIED3Yfyv7fZwEA4ajrS-98" value="" style="edgeStyle=entityRelationEdgeStyle;fontSize=12;html=1;endArrow=ERzeroToMany;endFill=1;rounded=0;exitX=0.5;exitY=1;exitDx=0;exitDy=0;entryX=0.5;entryY=0;entryDx=0;entryDy=0;" parent="1" source="oIED3Yfyv7fZwEA4ajrS-72" target="oIED3Yfyv7fZwEA4ajrS-15" edge="1">
          <mxGeometry width="100" height="100" relative="1" as="geometry">
            <mxPoint x="190" y="-50" as="sourcePoint" />
            <mxPoint x="290" y="-150" as="targetPoint" />
          </mxGeometry>
        </mxCell>
        <mxCell id="oIED3Yfyv7fZwEA4ajrS-99" value="M" style="resizable=0;html=1;whiteSpace=wrap;align=right;verticalAlign=bottom;fontSize=25;" parent="1" connectable="0" vertex="1">
          <mxGeometry x="210" y="100" as="geometry" />
        </mxCell>
      </root>
    </mxGraphModel>
  </diagram>
</mxfile>
